<svg width="9" height="11" viewBox="0 0 9 11" fill="none" xmlns="http://www.w3.org/2000/svg">
<path d="M0.599997 6.6375C0.599997 6.28845 0.640947 5.94525 0.722197 5.6066C0.803447 5.2686 0.930197 4.9449 1.10245 4.6368C1.12975 4.58935 1.15705 4.53995 1.1837 4.48925C1.211 4.43855 1.2435 4.39175 1.28055 4.34755C1.31245 4.30475 1.35214 4.26836 1.39755 4.2403C1.44585 4.21413 1.49991 4.20042 1.55485 4.20042C1.60978 4.20042 1.66385 4.21413 1.71215 4.2403C1.7611 4.26553 1.80172 4.30435 1.82915 4.3521L2.5045 5.4545C2.53376 5.50372 2.57575 5.54413 2.62605 5.5715C2.67961 5.59926 2.73866 5.6148 2.79895 5.617C2.85079 5.61929 2.9024 5.60888 2.9493 5.58668C2.9962 5.56448 3.03696 5.53115 3.06805 5.4896C3.11262 5.43112 3.14353 5.3634 3.15849 5.29141C3.17345 5.21942 3.17208 5.14499 3.1545 5.0736C3.14272 5.03168 3.1275 4.99081 3.109 4.9514C2.97523 4.66694 2.86142 4.37351 2.7684 4.07325C2.67791 3.76826 2.63344 3.45147 2.63645 3.13335C2.63645 2.70695 2.70795 2.3332 2.84965 2.01145C2.992 1.6897 3.1896 1.41345 3.44375 1.18335C3.69725 0.953249 3.99365 0.767349 4.3323 0.624999C4.68199 0.479559 5.04637 0.372337 5.4191 0.305199C5.46563 0.296589 5.51351 0.298544 5.55918 0.31092C5.60486 0.323295 5.64717 0.345776 5.683 0.376699C5.761 0.443649 5.8 0.526849 5.8 0.624999C5.8 1.13265 5.88645 1.6169 6.0587 2.0771C6.23341 2.54135 6.4747 2.97774 6.775 3.37255L7.33855 4.10835C7.52835 4.35535 7.70255 4.61275 7.8618 4.88055C8.02105 5.1477 8.14975 5.42525 8.2479 5.7132C8.3454 6.00115 8.39675 6.30925 8.4 6.6375C8.4 6.99955 8.3558 7.35185 8.26805 7.69375C8.18189 8.03072 8.0521 8.355 7.88195 8.65835C7.71295 8.95995 7.51275 9.23425 7.28265 9.48125C7.0511 9.72923 6.78824 9.94598 6.5007 10.126C6.2095 10.3087 5.8962 10.4497 5.56145 10.5479C5.2163 10.6471 4.85912 10.6983 4.5 10.7C4.14095 10.7018 3.78349 10.6521 3.43855 10.5524C3.1089 10.4568 2.79444 10.315 2.5045 10.1312C2.2171 9.9488 1.9528 9.7323 1.71735 9.48645C1.48041 9.23932 1.27873 8.96066 1.11805 8.65835C0.954979 8.35227 0.827193 8.02866 0.737147 7.69375C0.644945 7.34928 0.598826 6.9941 0.599997 6.6375Z" fill="#808080"/>
</svg>
