<svg width="13" height="13" viewBox="0 0 13 13" fill="none" xmlns="http://www.w3.org/2000/svg">
<path d="M6.50001 1.08334C9.49163 1.08334 11.9167 3.50838 11.9167 6.5C11.9167 9.49163 9.49163 11.9167 6.50001 11.9167C3.50839 11.9167 1.08334 9.49163 1.08334 6.5C1.08334 3.50838 3.50839 1.08334 6.50001 1.08334ZM6.50001 3.25C6.35635 3.25 6.21858 3.30707 6.11699 3.40865C6.01541 3.51024 5.95834 3.64801 5.95834 3.79167V6.5C5.95837 6.64365 6.01546 6.7814 6.11705 6.88296L7.74205 8.50796C7.84421 8.60663 7.98104 8.66123 8.12306 8.65999C8.26508 8.65876 8.40094 8.60179 8.50137 8.50136C8.6018 8.40093 8.65877 8.26508 8.66 8.12305C8.66123 7.98103 8.60664 7.8442 8.50797 7.74204L7.04168 6.27575V3.79167C7.04168 3.64801 6.98461 3.51024 6.88303 3.40865C6.78144 3.30707 6.64367 3.25 6.50001 3.25Z" fill="#808080"/>
</svg>
